# xmcd
#
# Track frame offsets:
#	150
#	21087
#	40875
#	52050
#	66487
#	91650
#	111175
#	122937
#	136525
#	155862
#	171587
#
# Disc length: 2468 seconds
#
# Revision: 1
# Processed by: cddbd v1.5.1PL0 Copyright (c) Steve Scherf et al.
# Submitted via: audiograbber 1.83.01
#
DISCID=9c09a20b
DTITLE=Various Artist - Boogie Woogie Session '76
DYEAR=1976
DGENRE=Rock and Roll
TTITLE0=Hans Georg Möller - Georg's Pinetop Boogie Woogie
TTITLE1=Hans Georg Möller - Gespräch mit dem Piano (Talk with the Piano)
TTITLE2=Hans Georg Möller - Servus Hans (Hello Hans)
TTITLE3=Axel Zwingenberger - Thursday Evening Blues
TTITLE4=Axel Zwingenberger - H.M.Boogie
TTITLE5=Axel Zwingenberger - Roll' Em
TTITLE6=Martin Pyrker - Hardtop Special
TTITLE7=Martin Pyrker - Two O'Clock Blues
TTITLE8=Martin Pyrker - Turn My Back On Everybody
TTITLE9=Martin Pyrker - Pickin' Up Speed
TTITLE10=Hans Georg Möller and Axel Zwingenberger and Martin Pyrker - Boogie Woogie
TTITLE10=Session
EXTD=Live in Vienna
EXTT0=
EXTT1=
EXTT2=
EXTT3=
EXTT4=
EXTT5=
EXTT6=
EXTT7=
EXTT8=
EXTT9=
EXTT10=
PLAYORDER=
